<?xml version="1.0" encoding="UTF-8" standalone="no"?>
<svg
   xmlns:dc="http://purl.org/dc/elements/1.1/"
   xmlns:cc="http://creativecommons.org/ns#"
   xmlns:rdf="http://www.w3.org/1999/02/22-rdf-syntax-ns#"
   xmlns:svg="http://www.w3.org/2000/svg"
   xmlns="http://www.w3.org/2000/svg"
   id="svg4550"
   version="1.1"
   viewBox="0 0 384 512"
   role="img"
   data-icon="file"
   data-prefix="fas"
   focusable="false"
   aria-hidden="true">
  <metadata
     id="metadata4556">
    <rdf:RDF>
      <cc:Work
         rdf:about="">
        <dc:format>image/svg+xml</dc:format>
        <dc:type
           rdf:resource="http://purl.org/dc/dcmitype/StillImage" />
        <dc:title></dc:title>
      </cc:Work>
    </rdf:RDF>
  </metadata>
  <defs
     id="defs4554" />
  <g
     id="g5724">
    <path
       d="m 152.00017,103.99973 v 128 h 128 v -6.09961 c 0,-6.3 -2.5,-12.40039 -7,-16.90039 l -97.90039,-98 c -4.5,-4.5 -10.6,-7 -17,-7 z"
       id="path5113" />
    <path
       id="path4548"
       d="m 33.299,104 v 408 h 222.70117 c 13.3,0 24,-9.91156 24,-22.23242 V 280.35547 264 h -136 c -13.2,0 -24,-10.8 -24,-24 V 104 Z m 67.18234,0 H 17.564258 C 7.8307317,104 0,114.7 0,128 V 365.94727 489.76758 C 0,502.08844 7.8307317,512 17.564258,512 h 82.917082 z" />
  </g>
  <path
     style="stroke-width:0.98473191"
     d="M 347.51515,104 C 338.98182,104 332,111.2 332,120 v 142.39844 h 32 V 120 c 0,-8.8 -6.98182,-16 -15.51515,-16 H 348 Z M 364,158.39844 H 332 V 496 c 0,8.8 6.98182,16 15.51515,16 H 348 348.48485 C 357.01818,512 364,504.79999 364,496 Z"
     id="path5732-6" />
  <path
     d="m 368.77604,104 v 20 h 5.77913 C 379.74966,124 384,119.63606 384,114.30273 V 114 113.69726 C 384,108.36393 379.74966,104 374.55517,104 Z m -43.32882,0 v 20 h 43.32882 v -20 z m 0,0 h -4.0024 C 316.25033,104 312,108.36393 312,113.69726 V 114 v 0.30273 c 0,5.33333 4.25032,9.69727 9.44482,9.69727 h 4.0024 z"
     style="stroke-width:0.59812009"
     id="path5732-6-9" />
  <path
     d="m 368.77604,492 v 20 h 5.77913 C 379.74966,512 384,507.63606 384,502.30273 V 502 501.69726 C 384,496.36393 379.74966,492 374.55517,492 Z m -43.32882,0 v 20 h 43.32882 v -20 z m 0,0 h -4.0024 C 316.25033,492 312,496.36393 312,501.69726 V 502 v 0.30273 c 0,5.33333 4.25032,9.69727 9.44482,9.69727 h 4.0024 z"
     style="stroke-width:0.59812009"
     id="path5732-6-9-1" />
  <path
     d="m 127.4572,21.244141 v 32 h 98.14453 38.39844 c 8.8,0 16,-6.980338 16,-15.513672 v -0.486328 -0.484375 c 0,-8.533334 -7.2,-15.515625 -16,-15.515625 h -38.39844 z m 17.35725,32 v -32 H 16 c -8.8,0 -16,6.982291 -16,15.515625 v 0.484375 0.486328 c 0,8.533334 7.20001,15.513672 16,15.513672 z"
     style="stroke-width:0.98473191"
     id="path5732-6-5" />
  <path
     d="m 280.00017,56.776045 h -20 v 5.779126 c 0,5.194492 4.36394,9.444829 9.69727,9.444829 h 0.30273 0.30274 c 5.33333,0 9.69726,-4.250337 9.69726,-9.444829 z m 0,-43.328821 h -20 v 43.328821 h 20 z m 0,0 V 9.44482 C 280.00017,4.2503276 275.63624,0 270.30291,0 h -0.30274 -0.30273 c -5.33333,0 -9.69727,4.2503179 -9.69727,9.44482 v 4.002404 z"
     style="stroke-width:0.59812009"
     id="path5732-6-9-2" />
  <path
     d="M 20,56.776045 H 0 v 5.779126 C 0,67.749663 4.36394,72 9.69727,72 H 10 10.30274 C 15.63607,72 20,67.749663 20,62.555171 Z M 20,13.447224 H 0 v 43.328821 h 20 z m 0,0 V 9.4448198 C 20,4.2503274 15.63607,-2.0000001e-7 10.30274,-2.0000001e-7 H 10 9.69727 C 4.36394,-2.0000001e-7 0,4.2503177 0,9.4448198 v 4.0024042 z"
     style="stroke-width:0.59812009"
     id="path5732-6-9-1-2" />
</svg>
