<?xml version="1.0" encoding="UTF-8"?>
<!-- Created with Inkscape (http://www.inkscape.org/) -->
<svg width="152.34" height="52.001" version="1.1" viewBox="0 0 152.34 52.001" xmlns="http://www.w3.org/2000/svg">
 <defs>
  <clipPath id="clipPath2">
   <path transform="translate(-42.06 -13.228)" d="m0 39h114.25v-39h-114.25z"/>
  </clipPath>
  <clipPath id="clipPath4">
   <path transform="translate(-59.835 -26.33)" d="m0 39h114.25v-39h-114.25z"/>
  </clipPath>
  <clipPath id="clipPath6">
   <path d="m0 39h114.25v-39h-114.25z"/>
  </clipPath>
  <clipPath id="clipPath8">
   <path transform="translate(-89.252 -15.819)" d="m0 39h114.25v-39h-114.25z"/>
  </clipPath>
  <clipPath id="clipPath10">
   <path transform="translate(-104.35 -13.277)" d="m0 39h114.25v-39h-114.25z"/>
  </clipPath>
  <clipPath id="clipPath12">
   <path transform="translate(-5.7358 -7.1357)" d="m0 39h114.25v-39h-114.25z"/>
  </clipPath>
  <clipPath id="clipPath14">
   <path transform="translate(-8.7988 -7.7324)" d="m0 39h114.25v-39h-114.25z"/>
  </clipPath>
  <clipPath id="clipPath16">
   <path transform="translate(-12.811 -7.1299)" d="m0 39h114.25v-39h-114.25z"/>
  </clipPath>
  <clipPath id="clipPath18">
   <path transform="translate(-16.214 -3.4424)" d="m0 39h114.25v-39h-114.25z"/>
  </clipPath>
  <clipPath id="clipPath20">
   <path transform="translate(-20.194 -5.3672)" d="m0 39h114.25v-39h-114.25z"/>
  </clipPath>
  <clipPath id="clipPath22">
   <path transform="translate(-22.467 -3.4473)" d="m0 39h114.25v-39h-114.25z"/>
  </clipPath>
  <clipPath id="clipPath24">
   <path d="m0 39h114.25v-39h-114.25z"/>
  </clipPath>
  <clipPath id="clipPath26">
   <path transform="translate(-29.062 -6.8633)" d="m0 39h114.25v-39h-114.25z"/>
  </clipPath>
  <clipPath id="clipPath28">
   <path transform="translate(-32.045 -3.4736)" d="m0 39h114.25v-39h-114.25z"/>
  </clipPath>
  <clipPath id="clipPath30">
   <path transform="translate(-34.58 -3.4629)" d="m0 39h114.25v-39h-114.25z"/>
  </clipPath>
  <clipPath id="clipPath32">
   <path transform="translate(-39.201 -3.4629)" d="m0 39h114.25v-39h-114.25z"/>
  </clipPath>
  <clipPath id="clipPath34">
   <path transform="translate(-43.702 -7.1299)" d="m0 39h114.25v-39h-114.25z"/>
  </clipPath>
  <clipPath id="clipPath36">
   <path transform="translate(-47.912 -3.4316)" d="m0 39h114.25v-39h-114.25z"/>
  </clipPath>
  <clipPath id="clipPath38">
   <path transform="translate(-51.17 -6.9775)" d="m0 39h114.25v-39h-114.25z"/>
  </clipPath>
  <clipPath id="clipPath40">
   <path transform="translate(-56.094 -3.4473)" d="m0 39h114.25v-39h-114.25z"/>
  </clipPath>
  <clipPath id="clipPath42">
   <path transform="translate(-58.652 -7.1143)" d="m0 39h114.25v-39h-114.25z"/>
  </clipPath>
  <clipPath id="clipPath44">
   <path transform="translate(-62.52 -6.8242)" d="m0 39h114.25v-39h-114.25z"/>
  </clipPath>
  <clipPath id="clipPath46">
   <path transform="translate(-66.77 -3.4473)" d="m0 39h114.25v-39h-114.25z"/>
  </clipPath>
  <clipPath id="clipPath48">
   <path transform="translate(-71.636 -6.8623)" d="m0 39h114.25v-39h-114.25z"/>
  </clipPath>
  <clipPath id="clipPath50">
   <path transform="translate(-73.201 -3.4834)" d="m0 39h114.25v-39h-114.25z"/>
  </clipPath>
  <clipPath id="clipPath52">
   <path transform="translate(-79.974 -3.4834)" d="m0 39h114.25v-39h-114.25z"/>
  </clipPath>
  <clipPath id="clipPath54">
   <path transform="translate(-81.643 -3.4834)" d="m0 39h114.25v-39h-114.25z"/>
  </clipPath>
  <clipPath id="clipPath56">
   <path transform="translate(-86.451 -3.4834)" d="m0 39h114.25v-39h-114.25z"/>
  </clipPath>
  <clipPath id="clipPath58">
   <path transform="translate(-91.252 -3.8877)" d="m0 39h114.25v-39h-114.25z"/>
  </clipPath>
  <clipPath id="clipPath60">
   <path transform="translate(-94.808 -3.4834)" d="m0 39h114.25v-39h-114.25z"/>
  </clipPath>
  <clipPath id="clipPath62">
   <path transform="translate(-97.573 -6.9326)" d="m0 39h114.25v-39h-114.25z"/>
  </clipPath>
  <clipPath id="clipPath64">
   <path transform="translate(-100.67 -6.9658)" d="m0 39h114.25v-39h-114.25z"/>
  </clipPath>
  <clipPath id="clipPath66">
   <path transform="translate(-102.47 -3.4834)" d="m0 39h114.25v-39h-114.25z"/>
  </clipPath>
  <clipPath id="clipPath68">
   <path transform="translate(-105.95 -3.4834)" d="m0 39h114.25v-39h-114.25z"/>
  </clipPath>
  <clipPath id="clipPath70">
   <path transform="translate(-21.343 -30.343)" d="m0 39h114.25v-39h-114.25z"/>
  </clipPath>
  <clipPath id="clipPath72">
   <path transform="translate(-21.853 -27.127)" d="m0 39h114.25v-39h-114.25z"/>
  </clipPath>
  <clipPath id="clipPath74">
   <path transform="translate(-22.867 -24.149)" d="m0 39h114.25v-39h-114.25z"/>
  </clipPath>
  <clipPath id="clipPath76">
   <path transform="translate(-14.587 -30.342)" d="m0 39h114.25v-39h-114.25z"/>
  </clipPath>
  <clipPath id="clipPath78">
   <path transform="translate(-7.7212 -30.342)" d="m0 39h114.25v-39h-114.25z"/>
  </clipPath>
 </defs>
 <g>
  <g fill="#110f0e">
   <path transform="matrix(1.3333 0 0 -1.3333 56.08 34.363)" d="m0 0v10.292c0 1.969-0.637 3.163-2.737 3.163-1.401 0-2.323-0.903-2.865-2.129-0.572-1.323-0.541-3.065-0.541-4.486v-6.84h-3.978v16.779h3.342l0.287-2.162c0.986 1.774 2.959 2.582 4.868 2.582 3.533 0 5.602-2.518 5.602-6.003v-11.196z" clip-path="url(#clipPath2)"/>
   <path transform="matrix(1.3333 0 0 -1.3333 79.779 16.894)" d="m0 0c-0.533 0.567-1.35 0.945-2.479 0.945-1.191 0-2.163-0.504-2.727-1.259-0.565-0.725-0.815-1.481-0.847-2.552h7.056c-0.031 1.229-0.376 2.174-1.003 2.866m4.892-5.732h-10.913c-0.032-1.259 0.407-2.456 1.191-3.213 0.564-0.534 1.35-1.008 2.414-1.008 1.13 0 1.819 0.221 2.385 0.788 0.343 0.347 0.627 0.787 0.783 1.387h3.764c-0.094-0.978-0.753-2.27-1.381-3.025-1.379-1.638-3.418-2.3-5.488-2.3-2.226 0-3.856 0.788-5.142 2.016-1.631 1.576-2.509 3.874-2.509 6.551 0 2.615 0.784 4.946 2.352 6.552 1.223 1.26 2.979 2.079 5.205 2.079 2.416 0 4.61-0.976 5.959-3.024 1.191-1.795 1.474-3.653 1.411-5.699 0 0-0.031-0.758-0.031-1.104" clip-path="url(#clipPath4)"/>
   <path transform="matrix(1.3333 0 0 -1.3333 0 52.001)" d="m68.206 18.208h4.767v-4.932h-4.767z" clip-path="url(#clipPath6)"/>
   <path transform="matrix(1.3333 0 0 -1.3333 119 30.909)" d="m0 0c-1.129-1.421-3.105-2.592-5.582-2.592-2.478 0-4.547 1.201-5.677 2.592-1.222 1.549-1.787 3.604-1.787 6.008 0 2.402 0.565 4.457 1.787 6.006 1.13 1.391 3.199 2.592 5.677 2.592 2.477 0 4.453-1.169 5.582-2.592 0.752-0.98 1.191-2.276 1.254-3.573h-3.858c-0.031 0.601-0.218 1.107-0.469 1.518-0.471 0.727-1.318 1.233-2.509 1.233-1.066 0-1.851-0.442-2.384-1.012-0.94-1.043-1.097-2.623-1.097-4.172 0-1.551 0.157-3.1 1.097-4.142 0.533-0.569 1.318-1.044 2.384-1.044 1.191 0 2.038 0.507 2.509 1.233 0.251 0.412 0.438 0.918 0.469 1.517h3.858c-0.063-1.295-0.502-2.592-1.254-3.572" clip-path="url(#clipPath8)"/>
   <path transform="matrix(1.3333 0 0 -1.3333 139.14 34.298)" d="m0 0v10.296c0 1.925-0.637 3.112-2.736 3.112-2.387 0-3.405-2.567-3.405-4.62v-8.788h-3.976v23.158h3.976v-8.243c0.954 1.411 2.8 2.181 4.519 2.181 3.531 0 5.6-2.534 5.6-5.966v-11.13z" clip-path="url(#clipPath10)"/>
  </g>
  <g fill="#231f20">
   <path transform="matrix(1.3333 0 0 -1.3333 7.6477 42.486)" d="m0 0h-1.18v-1.725h1.18c0.667 0 1.054 0.3 1.054 0.864 0 0.561-0.387 0.861-1.054 0.861m0.524-1.92 0.821-1.753h-0.325l-0.792 1.68h-1.408v-1.68h-0.296v3.946h1.476c0.883 0 1.362-0.451 1.362-1.134 0-0.519-0.331-0.925-0.838-1.059" clip-path="url(#clipPath12)"/>
   <path transform="matrix(1.3333 0 0 -1.3333 11.732 41.691)" d="m0 0-0.094 0.15 0.879 0.646 0.156-0.244zm-0.812-4.27v3.943h2.525v-0.278h-2.23v-1.446h1.963v-0.278h-1.963v-1.662h2.23v-0.279z" clip-path="url(#clipPath14)"/>
   <path transform="matrix(1.3333 0 0 -1.3333 17.081 42.494)" d="m0 0h-1.105v-1.769h1.105c0.593 0 1.037 0.267 1.037 0.884 0 0.618-0.444 0.885-1.037 0.885m0-2.047h-1.105v-1.62h-0.296v3.946h1.401c0.775 0 1.345-0.367 1.345-1.164 0-0.795-0.57-1.162-1.345-1.162" clip-path="url(#clipPath16)"/>
   <path transform="matrix(1.3333 0 0 -1.3333 21.619 47.411)" d="m0 0c-0.969 0-1.431 0.64-1.431 1.491v2.454h0.297v-2.46c0-0.672 0.342-1.213 1.134-1.213s1.14 0.541 1.14 1.213v2.46h0.295v-2.454c0-0.851-0.467-1.491-1.435-1.491" clip-path="url(#clipPath18)"/>
   <path transform="matrix(1.3333 0 0 -1.3333 26.925 44.844)" d="m0 0h-1.133v-1.646h1.133c0.553 0 1.083 0.157 1.083 0.84 0 0.645-0.496 0.806-1.083 0.806m0 1.753h-1.133v-1.475h1.133c0.559 0 0.992 0.128 0.992 0.757 0 0.552-0.501 0.718-0.992 0.718m1.015-3.399c-0.291-0.229-0.656-0.274-1.015-0.274h-1.429v3.946h1.429c0.303 0 0.622-0.045 0.878-0.212 0.257-0.167 0.416-0.462 0.416-0.756 0-0.428-0.182-0.802-0.644-0.924 0.501-0.117 0.735-0.512 0.735-0.962 0-0.313-0.114-0.617-0.37-0.818" clip-path="url(#clipPath20)"/>
   <path transform="matrix(1.3333 0 0 -1.3333 29.956 47.404)" d="m0 0v3.946h0.297v-3.673h2.097v-0.273z" clip-path="url(#clipPath22)"/>
   <path transform="matrix(1.3333 0 0 -1.3333 0 52.001)" d="m25.522 7.409h0.302v-3.946h-0.302z" clip-path="url(#clipPath24)"/>
   <path transform="matrix(1.3333 0 0 -1.3333 38.749 42.85)" d="m0 0c-0.211 0.195-0.508 0.299-0.821 0.299-0.314 0-0.61-0.104-0.821-0.299-0.399-0.361-0.416-0.959-0.416-1.414s0.017-1.059 0.416-1.42c0.211-0.195 0.507-0.299 0.821-0.299 0.25 0 0.484 0.067 0.678 0.191l-0.605 0.732 0.206 0.155 0.599-0.719c0.341 0.362 0.358 0.926 0.358 1.36 0 0.455-0.017 1.053-0.415 1.414m0.239-2.997 0.382-0.466-0.206-0.158-0.381 0.461c-0.228-0.152-0.513-0.248-0.855-0.248-0.439 0-0.786 0.161-1.037 0.389-0.455 0.418-0.507 1.051-0.507 1.605 0 0.553 0.052 1.183 0.507 1.598 0.251 0.228 0.598 0.39 1.037 0.39s0.786-0.162 1.036-0.39c0.456-0.415 0.508-1.045 0.508-1.598 0-0.542-0.052-1.166-0.484-1.583" clip-path="url(#clipPath26)"/>
   <path transform="matrix(1.3333 0 0 -1.3333 42.727 47.369)" d="m0 0c-0.968 0-1.43 0.64-1.43 1.491v2.454h0.297v-2.46c0-0.672 0.341-1.213 1.133-1.213s1.14 0.541 1.14 1.213v2.46h0.296v-2.454c0-0.851-0.467-1.491-1.436-1.491" clip-path="url(#clipPath28)"/>
   <path transform="matrix(1.3333 0 0 -1.3333 46.107 47.383)" d="m0 0v3.946h2.587v-0.279h-2.285v-1.446h2.011v-0.278h-2.011v-1.664h2.285v-0.279z" clip-path="url(#clipPath30)"/>
   <path transform="matrix(1.3333 0 0 -1.3333 52.268 47.383)" d="m0 0v3.946h2.587v-0.279h-2.285v-1.446h2.011v-0.278h-2.011v-1.664h2.285v-0.279z" clip-path="url(#clipPath32)"/>
   <path transform="matrix(1.3333 0 0 -1.3333 58.269 42.494)" d="m0 0v-3.667h-0.296v3.667h-1.282v0.279h2.866v-0.279z" clip-path="url(#clipPath34)"/>
   <path transform="matrix(1.3333 0 0 -1.3333 63.883 47.425)" d="m0 0c-0.388 0-0.787 0.15-1.066 0.413-0.433 0.413-0.473 1.021-0.473 1.564 0 0.542 0.04 1.143 0.473 1.557 0.279 0.262 0.678 0.412 1.066 0.412 0.803 0 1.373-0.531 1.435-1.235h-0.307c-0.052 0.565-0.491 0.962-1.128 0.962-0.359 0-0.633-0.118-0.849-0.328-0.365-0.355-0.382-0.913-0.382-1.368 0-0.457 0.023-1.021 0.388-1.375 0.222-0.216 0.507-0.329 0.843-0.329 0.637 0 1.076 0.398 1.128 0.961h0.307c-0.062-0.703-0.632-1.234-1.435-1.234" clip-path="url(#clipPath36)"/>
   <path transform="matrix(1.3333 0 0 -1.3333 68.227 42.697)" d="m0 0-0.86-2.231h1.737zm1.396-3.546-0.41 1.04h-1.955l-0.398-1.04h-0.308l1.533 3.946h0.29l1.55-3.946z" clip-path="url(#clipPath38)"/>
   <path transform="matrix(1.3333 0 0 -1.3333 74.792 47.404)" d="m0 0-2.343 3.495v-3.495h-0.295v3.946h0.336l2.347-3.489v3.489h0.291v-3.946z" clip-path="url(#clipPath40)"/>
   <path transform="matrix(1.3333 0 0 -1.3333 78.203 42.515)" d="m0 0v-3.667h-0.296v3.667h-1.282v0.279h2.866v-0.279z" clip-path="url(#clipPath42)"/>
   <path transform="matrix(1.3333 0 0 -1.3333 83.36 42.902)" d="m0 0c-0.212 0.193-0.508 0.296-0.82 0.296-0.314 0-0.611-0.103-0.821-0.296-0.399-0.358-0.416-0.949-0.416-1.4 0-0.452 0.017-1.049 0.416-1.408 0.21-0.193 0.507-0.296 0.821-0.296 0.312 0 0.608 0.103 0.82 0.296 0.398 0.359 0.415 0.956 0.415 1.408 0 0.451-0.017 1.042-0.415 1.4m0.216-2.991c-0.251-0.226-0.598-0.386-1.036-0.386-0.439 0-0.786 0.16-1.037 0.386-0.456 0.414-0.508 1.042-0.508 1.591 0 0.547 0.052 1.171 0.508 1.583 0.251 0.226 0.598 0.386 1.037 0.386 0.438 0 0.785-0.16 1.036-0.386 0.456-0.412 0.508-1.036 0.508-1.583 0-0.549-0.052-1.177-0.508-1.591" clip-path="url(#clipPath44)"/>
   <path transform="matrix(1.3333 0 0 -1.3333 89.027 47.404)" d="m0 0-2.342 3.495v-3.495h-0.296v3.946h0.335l2.348-3.489v3.489h0.291v-3.946z" clip-path="url(#clipPath46)"/>
   <path transform="matrix(1.3333 0 0 -1.3333 95.515 42.851)" d="m0 0c-0.205 0.195-0.501 0.303-0.803 0.303h-1.043v-3.459h1.043c0.302 0 0.598 0.108 0.803 0.303 0.376 0.364 0.405 0.946 0.405 1.43s-0.029 1.065-0.405 1.423m0.218-3.01c-0.24-0.228-0.594-0.389-1.021-0.389h-1.339v3.946h1.339c0.427 0 0.781-0.161 1.021-0.39 0.443-0.417 0.489-1.03 0.489-1.58 0-0.553-0.046-1.169-0.489-1.587" clip-path="url(#clipPath48)"/>
   <path transform="matrix(1.3333 0 0 -1.3333 97.601 47.356)" d="m0 0v3.946h2.587v-0.279h-2.285v-1.446h2.011v-0.278h-2.011v-1.664h2.285v-0.279z" clip-path="url(#clipPath50)"/>
  </g>
  <g fill="#ee2922">
   <path transform="matrix(1.3333 0 0 -1.3333 106.63 47.356)" d="m0 0-1.937 3.171v-3.171h-0.478v3.945h0.557l1.936-3.182v3.182h0.478v-3.945z" clip-path="url(#clipPath52)"/>
   <path transform="matrix(1.3333 0 0 -1.3333 108.86 47.356)" d="m0 0v3.945h2.637v-0.456h-2.142v-1.202h1.881v-0.468h-1.881v-1.363h2.142v-0.456z" clip-path="url(#clipPath54)"/>
   <path transform="matrix(1.3333 0 0 -1.3333 115.27 47.356)" d="m0 0c-0.885 0-1.441 0.525-1.441 1.492v2.453h0.495v-2.466c0-0.616 0.261-1.027 0.946-1.027s0.945 0.411 0.945 1.027v2.466h0.496v-2.453c0-0.967-0.557-1.492-1.441-1.492" clip-path="url(#clipPath56)"/>
   <path transform="matrix(1.3333 0 0 -1.3333 121.67 46.817)" d="m0 0c-0.239-0.23-0.629-0.407-1.058-0.407-0.395 0-0.784 0.138-1.068 0.407-0.429 0.402-0.495 0.959-0.495 1.565s0.066 1.164 0.495 1.565c0.284 0.268 0.673 0.408 1.068 0.408 0.429 0 0.813-0.16 1.052-0.392 0.229-0.225 0.373-0.514 0.39-0.869h-0.512c-6e-3 0.209-0.09 0.392-0.217 0.533-0.156 0.166-0.412 0.278-0.713 0.278-0.266 0-0.528-0.102-0.717-0.289-0.324-0.322-0.334-0.837-0.334-1.234s0.01-0.912 0.334-1.233c0.189-0.187 0.451-0.29 0.717-0.29 0.301 0 0.563 0.124 0.718 0.29 0.128 0.14 0.212 0.339 0.218 0.548h0.511c-0.016-0.355-0.16-0.655-0.389-0.88" clip-path="url(#clipPath58)"/>
   <path transform="matrix(1.3333 0 0 -1.3333 126.41 47.356)" d="m0 0v1.819h-1.893v-1.819h-0.495v3.945h0.495v-1.647h1.893v1.647h0.494v-3.945z" clip-path="url(#clipPath60)"/>
   <path transform="matrix(1.3333 0 0 -1.3333 130.1 42.757)" d="m0 0-0.696-2.047h1.397zm0.579 0.741-0.601 0.64-0.596-0.64-0.25 0.25 0.695 0.728h0.307l0.695-0.728zm0.606-4.19-0.323 0.934h-1.714l-0.317-0.934h-0.501l1.392 3.945h0.578l1.397-3.945z" clip-path="url(#clipPath62)"/>
   <path transform="matrix(1.3333 0 0 -1.3333 134.23 42.713)" d="m0 0v-3.482h-0.501v3.482h-1.174v0.463h2.849v-0.463z" clip-path="url(#clipPath64)"/>
   <path transform="matrix(1.3333 0 0 -1.3333 136.63 47.356)" d="m0 0v3.945h2.637v-0.456h-2.142v-1.202h1.881v-0.468h-1.881v-1.363h2.142v-0.456z" clip-path="url(#clipPath66)"/>
   <path transform="matrix(1.3333 0 0 -1.3333 141.27 47.356)" d="m0 0v3.945h0.495v-3.482h1.898v-0.463z" clip-path="url(#clipPath68)"/>
  </g>
  <path transform="matrix(1.3333 0 0 -1.3333 28.457 11.544)" d="m0 0-3.486-17.081h6.826l3.49 17.05z" clip-path="url(#clipPath70)" fill="#ed1c24"/>
  <g fill="#fff">
   <path transform="matrix(1.3333 0 0 -1.3333 29.137 15.831)" d="m0 0-0.299-1.355h4.583l0.3 1.355z" clip-path="url(#clipPath72)"/>
   <path transform="matrix(1.3333 0 0 -1.3333 30.489 19.802)" d="m0 0h1.333l0.948 4.604h-1.333z" clip-path="url(#clipPath74)"/>
   <path transform="matrix(1.3333 0 0 -1.3333 19.449 11.545)" d="m0 0-3.52-17.032 6.79-0.048 3.488 17.08z" clip-path="url(#clipPath76)"/>
  </g>
  <path transform="matrix(1.3333 0 0 -1.3333 10.295 11.545)" d="m0 0-3.486-17.081h6.826l3.49 17.05z" clip-path="url(#clipPath78)" fill="#00a880"/>
 </g>
</svg>
