<?xml version="1.0" encoding="UTF-8"?>
<!-- Generator: Adobe Illustrator 26.0.1, SVG Export Plug-In . SVG Version: 6.00 Build 0)  -->
<svg version="1.1" id="svg8" xmlns:cc="http://creativecommons.org/ns#" xmlns:dc="http://purl.org/dc/elements/1.1/" xmlns:rdf="http://www.w3.org/1999/02/22-rdf-syntax-ns#" xmlns:svg="http://www.w3.org/2000/svg" xmlns="http://www.w3.org/2000/svg" xmlns:xlink="http://www.w3.org/1999/xlink" x="0px" y="0px" viewBox="0 0 250 41" style="enable-background:new 0 0 250 41;" xml:space="preserve">
<style type="text/css">
	.st0{fill:#e24848;}
	.st1{enable-background:new    ;}
	.st2{fill:#FFFFFF;}
</style>
<g id="layer1" transform="translate(0,-286.1653)">
	<path id="rect825" class="st0" d="M14.2,293.3l224,2.7l-5.4,20.6l-45,0.4l-41.3,7.3l15.5-7.1L19,318.5L14.2,293.3z"/>
	<g class="st1">
		<path class="st2" d="M33.4,309.9h-1.9l-0.7-1.9h-3.4l-0.7,1.9h-1.8l3.3-8.5H30L33.4,309.9z M30.3,306.5l-1.2-3.1l-1.1,3.1H30.3z"/>
		<path class="st2" d="M34.3,309.9v-8.5H36v8.5H34.3z"/>
		<path class="st2" d="M37.6,301.4h3.1c0.7,0,1.2,0.1,1.6,0.2c0.5,0.1,0.9,0.4,1.3,0.8c0.4,0.4,0.6,0.8,0.8,1.4    c0.2,0.5,0.3,1.2,0.3,2c0,0.7-0.1,1.3-0.3,1.8c-0.2,0.6-0.5,1.1-0.9,1.5c-0.3,0.3-0.7,0.5-1.2,0.7c-0.4,0.1-0.9,0.2-1.5,0.2h-3.2    V301.4z M39.3,302.9v5.6h1.3c0.5,0,0.8,0,1-0.1c0.3-0.1,0.5-0.2,0.7-0.4c0.2-0.2,0.3-0.4,0.4-0.8c0.1-0.4,0.2-0.9,0.2-1.6    c0-0.7-0.1-1.2-0.2-1.5s-0.3-0.6-0.5-0.8c-0.2-0.2-0.5-0.3-0.8-0.4c-0.2-0.1-0.7-0.1-1.4-0.1H39.3z"/>
		<path class="st2" d="M46.2,309.9v-8.5h6.3v1.4h-4.6v1.9h4.3v1.4h-4.3v2.3h4.7v1.4H46.2z"/>
		<path class="st2" d="M53.3,309.9v-1.5l4.4-5.5h-3.9v-1.4H60v1.3l-4.6,5.7h4.8v1.4H53.3z"/>
		<path class="st2" d="M61.1,307.6V306h3.2v1.6H61.1z"/>
		<path class="st2" d="M65.2,309.9v-8.5h1.7l3.5,5.7v-5.7h1.6v8.5h-1.7l-3.4-5.5v5.5H65.2z"/>
		<path class="st2" d="M73.4,305.7c0-0.9,0.1-1.6,0.4-2.2c0.2-0.4,0.5-0.8,0.8-1.2c0.3-0.3,0.7-0.6,1.1-0.8c0.5-0.2,1.1-0.3,1.8-0.3    c1.2,0,2.2,0.4,3,1.2c0.7,0.8,1.1,1.9,1.1,3.2c0,1.4-0.4,2.4-1.1,3.2c-0.7,0.8-1.7,1.2-3,1.2c-1.3,0-2.3-0.4-3-1.2    C73.8,308.1,73.4,307.1,73.4,305.7z M75.2,305.7c0,1,0.2,1.7,0.7,2.2c0.4,0.5,1,0.7,1.7,0.7c0.7,0,1.2-0.2,1.7-0.7    c0.4-0.5,0.7-1.2,0.7-2.2c0-1-0.2-1.7-0.6-2.2c-0.4-0.5-1-0.7-1.7-0.7c-0.7,0-1.3,0.2-1.7,0.7C75.4,304,75.2,304.7,75.2,305.7z"/>
		<path class="st2" d="M82.9,301.4h1.7v4.6c0,0.7,0,1.2,0.1,1.4c0.1,0.3,0.2,0.6,0.5,0.8c0.3,0.2,0.7,0.3,1.1,0.3    c0.5,0,0.9-0.1,1.1-0.3c0.2-0.2,0.4-0.4,0.4-0.7c0-0.3,0.1-0.8,0.1-1.4v-4.7h1.7v4.4c0,1,0,1.7-0.1,2.2c-0.1,0.4-0.3,0.8-0.5,1.1    c-0.2,0.3-0.6,0.5-1,0.7c-0.4,0.2-1,0.3-1.6,0.3c-0.8,0-1.4-0.1-1.8-0.3c-0.4-0.2-0.7-0.4-1-0.7c-0.2-0.3-0.4-0.6-0.5-0.9    c-0.1-0.5-0.2-1.2-0.2-2.1V301.4z"/>
		<path class="st2" d="M91.1,307.1l1.7-0.2c0.1,0.6,0.3,1,0.6,1.2c0.3,0.3,0.7,0.4,1.2,0.4c0.6,0,1-0.1,1.2-0.3    c0.3-0.2,0.4-0.5,0.4-0.8c0-0.2-0.1-0.4-0.2-0.5c-0.1-0.1-0.3-0.3-0.6-0.4c-0.2-0.1-0.7-0.2-1.4-0.4c-0.9-0.2-1.6-0.5-1.9-0.8    c-0.5-0.5-0.8-1-0.8-1.7c0-0.4,0.1-0.8,0.4-1.2c0.2-0.4,0.6-0.7,1.1-0.9s1-0.3,1.7-0.3c1.1,0,1.9,0.2,2.4,0.7    c0.5,0.5,0.8,1.1,0.8,1.9l-1.7,0.1c-0.1-0.4-0.2-0.7-0.5-0.9c-0.2-0.2-0.6-0.3-1.1-0.3c-0.5,0-0.9,0.1-1.2,0.3    c-0.2,0.1-0.3,0.3-0.3,0.5c0,0.2,0.1,0.4,0.3,0.5c0.2,0.2,0.7,0.4,1.6,0.6s1.4,0.4,1.8,0.6c0.4,0.2,0.7,0.5,0.9,0.9    c0.2,0.4,0.3,0.8,0.3,1.3c0,0.5-0.1,0.9-0.4,1.4c-0.3,0.4-0.7,0.7-1.1,0.9c-0.5,0.2-1.1,0.3-1.8,0.3c-1.1,0-1.9-0.2-2.5-0.7    C91.5,308.8,91.2,308.1,91.1,307.1z"/>
		<path class="st2" d="M110.3,309.9h-1.9l-0.7-1.9h-3.4l-0.7,1.9h-1.8l3.3-8.5h1.8L110.3,309.9z M107,300.9h-1l-1.6-1.7h1.8    L107,300.9z M107.2,306.5l-1.2-3.1l-1.1,3.1H107.2z"/>
		<path class="st2" d="M114.5,309.9v-8.5h1.7l3.5,5.7v-5.7h1.6v8.5h-1.7l-3.4-5.5v5.5H114.5z"/>
		<path class="st2" d="M122.7,305.7c0-0.9,0.1-1.6,0.4-2.2c0.2-0.4,0.5-0.8,0.8-1.2c0.3-0.3,0.7-0.6,1.1-0.8    c0.5-0.2,1.1-0.3,1.8-0.3c1.2,0,2.2,0.4,3,1.2c0.7,0.8,1.1,1.9,1.1,3.2c0,1.4-0.4,2.4-1.1,3.2c-0.7,0.8-1.7,1.2-3,1.2    c-1.3,0-2.3-0.4-3-1.2C123.1,308.1,122.7,307.1,122.7,305.7z M124.5,305.7c0,1,0.2,1.7,0.7,2.2c0.4,0.5,1,0.7,1.7,0.7    c0.7,0,1.2-0.2,1.7-0.7c0.4-0.5,0.7-1.2,0.7-2.2c0-1-0.2-1.7-0.6-2.2c-0.4-0.5-1-0.7-1.7-0.7s-1.3,0.2-1.7,0.7    C124.7,304,124.5,304.7,124.5,305.7z"/>
		<path class="st2" d="M132.2,301.4h1.7v4.6c0,0.7,0,1.2,0.1,1.4c0.1,0.3,0.2,0.6,0.5,0.8c0.3,0.2,0.7,0.3,1.1,0.3    c0.5,0,0.9-0.1,1.1-0.3c0.2-0.2,0.4-0.4,0.4-0.7c0-0.3,0.1-0.8,0.1-1.4v-4.7h1.7v4.4c0,1,0,1.7-0.1,2.2c-0.1,0.4-0.3,0.8-0.5,1.1    c-0.2,0.3-0.6,0.5-1,0.7c-0.4,0.2-1,0.3-1.6,0.3c-0.8,0-1.4-0.1-1.8-0.3c-0.4-0.2-0.7-0.4-1-0.7c-0.2-0.3-0.4-0.6-0.5-0.9    c-0.1-0.5-0.2-1.2-0.2-2.1V301.4z"/>
		<path class="st2" d="M140.4,307.1l1.7-0.2c0.1,0.6,0.3,1,0.6,1.2c0.3,0.3,0.7,0.4,1.2,0.4c0.6,0,1-0.1,1.2-0.3    c0.3-0.2,0.4-0.5,0.4-0.8c0-0.2-0.1-0.4-0.2-0.5c-0.1-0.1-0.3-0.3-0.6-0.4c-0.2-0.1-0.7-0.2-1.4-0.4c-0.9-0.2-1.6-0.5-1.9-0.8    c-0.5-0.5-0.8-1-0.8-1.7c0-0.4,0.1-0.8,0.4-1.2c0.2-0.4,0.6-0.7,1.1-0.9s1-0.3,1.7-0.3c1.1,0,1.9,0.2,2.4,0.7    c0.5,0.5,0.8,1.1,0.8,1.9l-1.7,0.1c-0.1-0.4-0.2-0.7-0.5-0.9c-0.2-0.2-0.6-0.3-1.1-0.3c-0.5,0-0.9,0.1-1.2,0.3    c-0.2,0.1-0.3,0.3-0.3,0.5c0,0.2,0.1,0.4,0.3,0.5c0.2,0.2,0.7,0.4,1.6,0.6s1.4,0.4,1.8,0.6c0.4,0.2,0.7,0.5,0.9,0.9    c0.2,0.4,0.3,0.8,0.3,1.3c0,0.5-0.1,0.9-0.4,1.4c-0.3,0.4-0.7,0.7-1.1,0.9c-0.5,0.2-1.1,0.3-1.8,0.3c-1.1,0-1.9-0.2-2.5-0.7    C140.8,308.8,140.5,308.1,140.4,307.1z"/>
		<path class="st2" d="M159.2,309.9h-1.9l-0.7-1.9h-3.4l-0.7,1.9h-1.8l3.3-8.5h1.8L159.2,309.9z M156,306.5l-1.2-3.1l-1.1,3.1H156z"/>
		<path class="st2" d="M160,309.9v-8.5h2.6l1.5,5.8l1.5-5.8h2.6v8.5h-1.6v-6.7l-1.7,6.7h-1.6l-1.7-6.7v6.7H160z"/>
		<path class="st2" d="M169.9,309.9v-8.5h6.3v1.4h-4.6v1.9h4.3v1.4h-4.3v2.3h4.7v1.4H169.9z M172.1,300.9l0.8-1.7h1.8l-1.6,1.7    H172.1z"/>
		<path class="st2" d="M177.9,309.9v-8.4h1.7v7h4.3v1.4H177.9z"/>
		<path class="st2" d="M185,309.9v-8.5h1.7v8.5H185z"/>
		<path class="st2" d="M188,305.7c0-0.9,0.1-1.6,0.4-2.2c0.2-0.4,0.5-0.8,0.8-1.2c0.3-0.3,0.7-0.6,1.1-0.8c0.5-0.2,1.1-0.3,1.8-0.3    c1.2,0,2.2,0.4,3,1.2c0.7,0.8,1.1,1.9,1.1,3.2c0,1.4-0.4,2.4-1.1,3.2c-0.7,0.8-1.7,1.2-3,1.2c-1.3,0-2.3-0.4-3-1.2    C188.3,308.1,188,307.1,188,305.7z M189.7,305.7c0,1,0.2,1.7,0.7,2.2c0.4,0.5,1,0.7,1.7,0.7c0.7,0,1.2-0.2,1.7-0.7    c0.4-0.5,0.7-1.2,0.7-2.2c0-1-0.2-1.7-0.6-2.2c-0.4-0.5-1-0.7-1.7-0.7c-0.7,0-1.3,0.2-1.7,0.7C190,304,189.7,304.7,189.7,305.7z"/>
		<path class="st2" d="M197.5,309.9v-8.5h3.6c0.9,0,1.6,0.1,2,0.2c0.4,0.2,0.7,0.4,1,0.8c0.2,0.4,0.4,0.8,0.4,1.3    c0,0.6-0.2,1.2-0.6,1.6c-0.4,0.4-0.9,0.7-1.7,0.8c0.4,0.2,0.7,0.5,0.9,0.7c0.2,0.3,0.6,0.7,1,1.4l1,1.7h-2l-1.2-1.8    c-0.4-0.7-0.7-1.1-0.9-1.2c-0.2-0.2-0.3-0.3-0.5-0.4c-0.2-0.1-0.5-0.1-0.9-0.1h-0.3v3.5H197.5z M199.2,305h1.3    c0.8,0,1.3,0,1.5-0.1s0.4-0.2,0.5-0.4c0.1-0.2,0.2-0.4,0.2-0.6c0-0.3-0.1-0.5-0.2-0.7c-0.2-0.2-0.4-0.3-0.6-0.3    c-0.1,0-0.6,0-1.2,0h-1.3V305z"/>
		<path class="st2" d="M206.1,309.9v-8.5h6.3v1.4h-4.6v1.9h4.3v1.4h-4.3v2.3h4.7v1.4H206.1z"/>
		<path class="st2" d="M214,309.9v-8.5h3.6c0.9,0,1.6,0.1,2,0.2s0.7,0.4,1,0.8c0.2,0.4,0.4,0.8,0.4,1.3c0,0.6-0.2,1.2-0.6,1.6    c-0.4,0.4-0.9,0.7-1.7,0.8c0.4,0.2,0.7,0.5,0.9,0.7c0.2,0.3,0.6,0.7,1,1.4l1,1.7h-2l-1.2-1.8c-0.4-0.7-0.7-1.1-0.9-1.2    c-0.2-0.2-0.3-0.3-0.5-0.4c-0.2-0.1-0.5-0.1-0.9-0.1h-0.3v3.5H214z M215.7,305h1.3c0.8,0,1.3,0,1.5-0.1c0.2-0.1,0.4-0.2,0.5-0.4    c0.1-0.2,0.2-0.4,0.2-0.6c0-0.3-0.1-0.5-0.2-0.7c-0.2-0.2-0.4-0.3-0.6-0.3c-0.1,0-0.6,0-1.2,0h-1.3V305z"/>
		<path class="st2" d="M226.4,307.7l-0.4-4.3v-2h1.8v2l-0.4,4.3H226.4z M226.1,309.9v-1.6h1.6v1.6H226.1z"/>
	</g>
	<g id="flowRoot828">
	</g>
	<path id="path840" class="st0" d="M15.2,316.5l-12.3,3.1l-0.4-5.2L15.2,316.5z"/>
	<path id="path840-1" class="st0" d="M14.3,319.5l-3.9,5.8l-3-3L14.3,319.5z"/>
	<path id="path840-7" class="st0" d="M12.3,314l-7.5-1.8l3-2.9L12.3,314z"/>
	<path id="path840-9" class="st0" d="M238.9,295.6l3.5-8.6l6.4,3.5L238.9,295.6z"/>
	<path id="path840-73" class="st0" d="M237.7,294.8l-4.3-6.2l5.6-1.2L237.7,294.8z"/>
	<path id="path840-2" class="st0" d="M240.5,296.1l6.8-2.8l0.4,3.1L240.5,296.1z"/>
</g>
</svg>